<?xml version="1.0" standalone="no"?><!DOCTYPE svg PUBLIC "-//W3C//DTD SVG 1.1//EN" "http://www.w3.org/Graphics/SVG/1.1/DTD/svg11.dtd"><svg t="1601891769306" class="icon" viewBox="0 0 1024 1024" version="1.1" xmlns="http://www.w3.org/2000/svg" p-id="8413" xmlns:xlink="http://www.w3.org/1999/xlink" width="20" height="20"><defs><style type="text/css"></style></defs><path d="M730.22601457 948.45202914H614.85719487l-82.41669151-238.95748596H195.8632469L118.0293017 948.45202914H2.80596601L310.65013056 75.54797086h111.65897746L730.22601457 948.45202914zM499.9975692 610.8563846L377.93648505 247.94652237c-3.85532626-11.56597878-8.00162053-31.93374014-12.51162483-60.81231605h-2.61871217c-3.85532626 26.33260575-8.21984654 46.55488311-13.02081888 60.81231605L228.66989109 610.8563846h271.32767811zM765.50588692 617.11219702C801.51317932 595.50782157 843.12160611 584.74200486 890.18568325 584.74200486c87.29040583 0 130.93560874 43.93617093 130.93560873 131.88125479v223.60892295h-63.50377024v-53.68359959h-1.6003241c-25.09599168 41.31745877-62.04893015 61.90344613-110.9315574 61.90344613-35.20713035 0-63.06731821-9.09275061-83.7987896-27.35099384-20.73147138-18.18550121-31.13357807-42.84504087-31.13357808-73.76039292 0-65.03135234 40.08084468-102.71171085 120.09705002-113.47752757l107.36719916-14.40291697c0-56.73876379-24.44131363-85.10814568-73.32394089-85.10814568-43.4269769 0-82.99862754 13.96646493-118.78769393 42.04487882v-59.28473396z m107.36719917 159.88692668c-29.67873798 3.78258426-50.11924134 10.83855872-61.3942521 21.38614943-11.27501075 10.4748487-16.80340312 25.09599168-16.80340312 43.93617092 0 16.5124351 6.11032841 29.969706 18.33098522 40.51729671 12.22065682 10.4748487 28.36938189 15.71227305 48.37343323 15.71227305 28.00567188 0 50.9921454-9.45646063 69.10490461-28.2966399 18.0400172-18.84017926 27.13276781-42.48133083 27.13276781-70.99619673v-33.31583823l-84.74443565 11.05678475z" p-id="8414" fill="#969696"></path></svg>