<?xml version="1.0" standalone="no"?><!DOCTYPE svg PUBLIC "-//W3C//DTD SVG 1.1//EN" "http://www.w3.org/Graphics/SVG/1.1/DTD/svg11.dtd"><svg t="1601965888228" class="icon" viewBox="0 0 1024 1024" version="1.1" xmlns="http://www.w3.org/2000/svg" p-id="6979" xmlns:xlink="http://www.w3.org/1999/xlink" width="20" height="20"><defs><style type="text/css"></style></defs><path d="M512 1024a512 512 0 1 1 512-512 512 512 0 0 1-512 512z m273.664-340.6336l-105.728-73.4208a219.3152 219.3152 0 0 0 29.952-110.7968 214.1696 214.1696 0 1 0-214.272 217.6 212.48 212.48 0 0 0 163.328-77.0304l106.24 73.856a17.7152 17.7152 0 0 0 10.24 3.2 18.1248 18.1248 0 0 0 14.848-7.9872 18.4832 18.4832 0 0 0-4.608-25.4208z m-290.048-3.2a181.0176 181.0176 0 1 1 178.176-181.0176 179.712 179.712 0 0 1-178.176 181.0176z" fill="#969696" p-id="6980"></path></svg>