<?xml version="1.0" standalone="no"?><!DOCTYPE svg PUBLIC "-//W3C//DTD SVG 1.1//EN" "http://www.w3.org/Graphics/SVG/1.1/DTD/svg11.dtd"><svg t="1601891867916" class="icon" viewBox="0 0 1024 1024" version="1.1" xmlns="http://www.w3.org/2000/svg" p-id="10205" xmlns:xlink="http://www.w3.org/1999/xlink" width="20" height="20"><defs><style type="text/css"></style></defs><path d="M1016.010007 342.970182L738.831825 99.281455a22.853818 22.853818 0 0 0-15.057454-5.701819H417.644916a22.737455 22.737455 0 0 0-9.309091 0H269.304553a22.504727 22.504727 0 0 0-16.058182 6.330182L7.044189 343.296a23.156364 23.156364 0 0 0-1.000727 32.186182L499.006371 925.789091c4.375273 4.887273 10.542545 5.143273 16.989091 5.143273h0.139636c6.539636 0 12.753455-0.325818 17.105455-5.282909l484.864-549.003637a23.901091 23.901091 0 0 0-2.094546-33.652363zM300.955462 388.421818l153.367273 419.933091L79.050007 388.398545h221.905455zM585.813644 140.753455l103.866181 200.471272h-346.996363l85.364363-200.471272h157.765819z m98.676363 247.64509l-168.285091 456.680728-166.4-456.680728H684.490007z m49.338182 0h211.851636L579.669644 804.724364l154.112-416.325819z m209.408-47.173818h-201.309091l-103.842909-200.471272h77.149091l228.002909 200.471272zM278.660189 140.753455h98.885818l-85.504 200.471272H76.140916l202.519273-200.471272z" fill="#EA6F5A" p-id="10206"></path></svg>