<?xml version="1.0" standalone="no"?><!DOCTYPE svg PUBLIC "-//W3C//DTD SVG 1.1//EN" "http://www.w3.org/Graphics/SVG/1.1/DTD/svg11.dtd"><svg t="1601949663464" class="icon" viewBox="0 0 1024 1024" version="1.1" xmlns="http://www.w3.org/2000/svg" p-id="12105" xmlns:xlink="http://www.w3.org/1999/xlink" width="20" height="20"><defs><style type="text/css"></style></defs><path d="M904.192 183.296c-43.008-41.984-102.912-62.976-179.2-62.976-20.992 0-42.496 3.584-64.512 10.752-22.016 7.168-41.984 17.408-61.44 29.696-18.944 12.288-35.328 24.064-48.64 34.816-13.824 10.752-26.624 22.528-38.912 34.816-12.288-12.288-25.088-23.552-38.912-34.816-13.824-10.752-29.696-22.528-48.64-34.816-18.944-12.288-39.424-22.528-61.44-29.696-22.016-7.168-43.52-10.752-64.512-10.752-76.288 0-135.68 20.992-179.2 62.976C76.8 225.28 55.296 284.16 55.296 358.912c0 22.528 4.096 46.08 12.288 70.144 8.192 24.064 16.896 44.544 27.136 61.952 10.24 16.896 22.016 33.792 34.816 49.664 12.8 16.384 22.528 27.136 28.16 33.28 5.632 6.144 10.752 10.24 13.824 13.312l317.952 307.2c6.144 6.144 13.824 9.216 22.528 9.216s16.384-3.072 22.528-9.216l317.44-306.176c77.824-77.824 116.736-154.112 116.736-229.376 0-74.752-21.504-133.632-64.512-175.616z" p-id="12106" fill="#B4B4B4"></path></svg>