<?xml version="1.0" standalone="no"?><!DOCTYPE svg PUBLIC "-//W3C//DTD SVG 1.1//EN" "http://www.w3.org/Graphics/SVG/1.1/DTD/svg11.dtd"><svg t="1601949520760" class="icon" viewBox="0 0 1024 1024" version="1.1" xmlns="http://www.w3.org/2000/svg" p-id="9439" xmlns:xlink="http://www.w3.org/1999/xlink" width="20" height="20"><defs><style type="text/css"></style></defs><path d="M395.087 431.098H627.55v42.465H395.087v-42.465z m0 0" fill="#B4B4B4" p-id="9440"></path><path d="M512 65.286c-246.72 0-446.71 199.998-446.71 446.71 0 246.71 199.99 446.718 446.71 446.718s446.708-200.008 446.708-446.718c0-246.712-199.99-446.71-446.709-446.71zM258.752 317.1h107.28c-8.933-8.933-23.854-22.353-44.706-40.23-7.468-5.941-12.669-10.408-15.634-13.409l53.64-13.418c35.753 28.33 61.805 49.95 78.225 64.825l-4.484 2.234h46.939v-73.759h62.592v73.76h44.706l-4.467-2.235c25.32-17.886 52.14-39.461 80.46-64.825l53.64 13.418c-17.868 17.878-38.755 35.763-62.574 53.64h109.532V417.69h-60.358v-58.125H316.861v58.125h-58.107V317.101h-0.001zM361.566 587.56v93.88H301.21V545.09h422.454v131.884h-58.125V587.56H361.566zM334.728 513.8V393.102h350.93v120.699h-350.93z m404.57 261.517c-99.847-38.774-175.84-64.826-227.979-78.226-32.806 40.22-113.998 67.04-243.63 80.459-5.969-17.886-13.42-35.772-22.354-53.64 165.404-7.484 245.096-45.439 239.164-113.998h60.34c-1.5 16.421-5.234 31.289-11.167 44.707 26.82 7.467 66.273 20.101 118.465 37.986 50.638 14.92 88.627 26.053 113.999 33.54l-26.839 49.172z m0 0" fill="#B4B4B4" p-id="9441"></path></svg>