<?xml version="1.0" standalone="no"?><!DOCTYPE svg PUBLIC "-//W3C//DTD SVG 1.1//EN" "http://www.w3.org/Graphics/SVG/1.1/DTD/svg11.dtd"><svg t="1601891704483" class="icon" viewBox="0 0 1024 1024" version="1.1" xmlns="http://www.w3.org/2000/svg" p-id="7386" xmlns:xlink="http://www.w3.org/1999/xlink" width="20" height="20"><defs><style type="text/css"></style></defs><path d="M784.984 695.715c22.607 0 40.933-18.325 40.933-40.932V119.099c0-29.477-23.982-53.458-53.458-53.458H250.516c-29.477 0-53.458 23.981-53.458 53.458v792.278c0 29.477 23.981 53.457 53.458 53.457h521.943c29.477 0 53.458-23.98 53.458-53.457v-86.483c0-22.607-18.326-40.932-40.933-40.932s-40.932 18.325-40.932 40.932v58.076h-465.13V147.505h465.13v507.278c0 22.607 18.326 40.932 40.932 40.932z" p-id="7387"></path><path d="M452.836 766.836a57.827 57.827 0 1 0 118.349 0 57.827 57.827 0 1 0-118.35 0z" p-id="7388"></path></svg>