<?xml version="1.0" standalone="no"?><!DOCTYPE svg PUBLIC "-//W3C//DTD SVG 1.1//EN" "http://www.w3.org/Graphics/SVG/1.1/DTD/svg11.dtd"><svg t="1601892306522" class="icon" viewBox="0 0 1024 1024" version="1.1" xmlns="http://www.w3.org/2000/svg" p-id="30908" xmlns:xlink="http://www.w3.org/1999/xlink" width="20" height="20"><defs><style type="text/css"></style></defs><path d="M822.84 200.249A435.996 435.996 0 0 0 562.518 74.41l14.109-14.109a27.307 27.307 0 0 0-38.685-37.546L497.436 62.35a51.428 51.428 0 0 0 0 72.59l40.505 40.505a27.307 27.307 0 1 0 38.457-38.912l-6.826-6.826a385.48 385.48 0 0 1 177.493 686.08 27.307 27.307 0 1 0 33.223 43.235 443.05 443.05 0 0 0 124.473-151.097 439.637 439.637 0 0 0-81.92-507.676zM527.02 901.575a51.655 51.655 0 0 0-10.013-14.336l-39.14-40.505a27.307 27.307 0 0 0-38.456 38.457l5.234 5.234a385.48 385.48 0 0 1-174.99-678.798A27.307 27.307 0 1 0 235.52 169.3a439.865 439.865 0 0 0 217.998 778.013L438.5 962.332a27.307 27.307 0 1 0 39.367 38.912l40.732-40.732a49.607 49.607 0 0 0 10.013-14.336 27.08 27.08 0 0 0 11.377-22.756 26.624 26.624 0 0 0-11.15-22.755z m0 0" fill="#787878" p-id="30909"></path></svg>