<?xml version="1.0" standalone="no"?><!DOCTYPE svg PUBLIC "-//W3C//DTD SVG 1.1//EN" "http://www.w3.org/Graphics/SVG/1.1/DTD/svg11.dtd"><svg t="1601949483440" class="icon" viewBox="0 0 1024 1024" version="1.1" xmlns="http://www.w3.org/2000/svg" p-id="8155" xmlns:xlink="http://www.w3.org/1999/xlink" width="20" height="20"><defs><style type="text/css"></style></defs><path d="M352.17134 442.34393099L509.221212 991.80512399l157.060105-549.461193H352.17134z m33.128515-287.49583H204.368062L63.079152 384.86175199h230.196823l92.02388-230.013651z m277.91973 229.986021L571.186496 154.84810099H447.241602l-92.00239 230.013651 307.980373-0.02763z m-586.999134 57.541531L232.038262 640.09375999c0.375553-0.170892 202.846918 257.402441 202.846918 257.402442L291.769668 442.37565299H76.220451zM633.119033 154.84810099l92.034113 229.986021 232.863559 0.02763L814.065152 154.84810099H633.119033z m-46.115294 738.847541l270.741238-341.351411c-0.493234-0.25378 86.810135-109.969601 86.810135-109.969601H726.62773L587.003739 893.69564199z" fill="#EA6F5A" p-id="8156"></path></svg>