<?xml version="1.0" standalone="no"?><!DOCTYPE svg PUBLIC "-//W3C//DTD SVG 1.1//EN" "http://www.w3.org/Graphics/SVG/1.1/DTD/svg11.dtd"><svg t="1601888344916" class="icon" viewBox="0 0 1024 1024" version="1.1" xmlns="http://www.w3.org/2000/svg" p-id="2269" xmlns:xlink="http://www.w3.org/1999/xlink" width="20" height="20"><defs><style type="text/css"></style></defs><path d="M874.496 149.504C970.752 245.76 1020.416 366.592 1024 512c-3.584 145.408-53.248 266.24-149.504 362.496-96.256 96.256-217.088 145.92-362.496 149.504-145.408-3.584-266.24-53.248-362.496-149.504C53.248 778.24 3.072 657.408 0 512c3.072-145.408 53.248-266.24 149.504-362.496C245.76 53.248 366.592 3.584 512 0c145.408 3.584 266.24 53.248 362.496 149.504z m-51.712 673.28c82.432-82.432 125.44-186.368 129.024-310.784-3.584-124.416-46.592-228.352-129.024-310.784S636.416 75.776 512 72.192c-124.928 3.584-228.352 46.592-310.784 129.024C118.272 283.648 75.264 387.584 72.192 512c3.072 124.928 46.08 228.352 129.024 310.784 82.432 82.432 186.368 125.44 310.784 129.024 124.416-3.072 228.352-46.08 310.784-129.024zM737.792 286.208L640 502.784c1.536 17.92-1.024 35.84-7.68 53.248-6.144 17.408-16.384 32.768-30.208 46.592-13.824 13.824-29.184 23.552-46.592 30.208-17.408 6.144-34.816 8.704-53.248 7.68l-217.088 97.792L384 521.216c-1.536-17.92 1.024-35.84 7.68-53.248 6.144-17.408 16.384-32.768 30.208-46.592 13.824-13.824 29.184-23.552 46.592-30.208 17.408-6.144 34.816-8.704 53.248-7.68l216.064-97.28zM567.808 512c0-14.848-5.632-27.648-16.896-38.912-11.264-11.264-24.576-16.896-38.912-16.896-14.848 0-27.648 5.632-38.912 16.896-11.264 11.264-16.896 24.576-16.896 38.912 0 14.848 5.632 27.648 16.896 38.912 11.264 11.264 24.576 16.896 38.912 16.896 14.848 0 28.16-5.12 39.936-15.872 10.752-11.776 15.872-25.088 15.872-39.936z" p-id="2270" fill="#EA6F5A"></path></svg>